<svg id="visual" viewBox="0 0 900 600" width="900" height="600" xmlns="http://www.w3.org/2000/svg" xmlns:xlink="http://www.w3.org/1999/xlink" version="1.1"><rect x="0" y="0" width="900" height="600" fill="#001220"></rect><defs><linearGradient id="grad1_0" x1="33.3%" y1="100%" x2="100%" y2="0%"><stop offset="20%" stop-color="#001220" stop-opacity="1"></stop><stop offset="80%" stop-color="#001220" stop-opacity="1"></stop></linearGradient></defs><defs><linearGradient id="grad2_0" x1="0%" y1="100%" x2="66.7%" y2="0%"><stop offset="20%" stop-color="#001220" stop-opacity="1"></stop><stop offset="80%" stop-color="#001220" stop-opacity="1"></stop></linearGradient></defs><g transform="translate(900, 600)"><path d="M-378.6 0C-339.7 -34.3 -300.8 -68.7 -289.2 -119.8C-277.6 -170.9 -293.3 -238.8 -267.7 -267.7C-242.1 -296.6 -175.1 -286.4 -123.6 -298.4C-72.1 -310.4 -36 -344.5 0 -378.6L0 0Z" fill="#FBAE3C"></path></g><g transform="translate(0, 0)"><path d="M378.6 0C346.6 35.2 314.6 70.5 304 125.9C293.3 181.3 303.9 257 267.7 267.7C231.5 278.4 148.5 224.2 96.1 231.9C43.6 239.6 21.8 309.1 0 378.6L0 0Z" fill="#FBAE3C"></path></g></svg>